<mxfile host="app.diagrams.net" modified="2022-11-17T15:35:39.937Z" agent="5.0 (Windows NT 10.0; Win64; x64) AppleWebKit/537.36 (KHTML, like Gecko) Chrome/107.0.0.0 Safari/537.36" etag="jM_576E2O2jzVYh67wpp" version="20.4.1" type="github">
  <diagram id="0QNdjRsXSifUzwaE3yXo" name="第 1 页">
    <mxGraphModel dx="1038" dy="539" grid="1" gridSize="10" guides="1" tooltips="1" connect="1" arrows="1" fold="1" page="1" pageScale="1" pageWidth="827" pageHeight="1169" math="0" shadow="0">
      <root>
        <mxCell id="0" />
        <mxCell id="1" parent="0" />
        <mxCell id="Wph4KG50UmGnbhIYvJGn-1" value="&lt;b&gt;&lt;font style=&quot;font-size: 14px;&quot;&gt;测试人员&lt;/font&gt;&lt;/b&gt;" style="shape=umlActor;verticalLabelPosition=bottom;verticalAlign=top;html=1;outlineConnect=0;strokeColor=#990099;" vertex="1" parent="1">
          <mxGeometry x="120" y="280" width="40" height="70" as="geometry" />
        </mxCell>
        <mxCell id="Wph4KG50UmGnbhIYvJGn-4" value="&lt;font style=&quot;font-size: 17px;&quot;&gt;&lt;b&gt;登录&lt;/b&gt;&lt;/font&gt;" style="ellipse;whiteSpace=wrap;html=1;fillColor=#e1d5e7;strokeColor=#9673a6;" vertex="1" parent="1">
          <mxGeometry x="260" y="110" width="150" height="70" as="geometry" />
        </mxCell>
        <mxCell id="Wph4KG50UmGnbhIYvJGn-5" value="&lt;b&gt;查看C\C++测试&lt;br&gt;任务&lt;/b&gt;" style="ellipse;whiteSpace=wrap;html=1;fontSize=17;fillColor=#f8cecc;strokeColor=#b85450;" vertex="1" parent="1">
          <mxGeometry x="320" y="310" width="170" height="80" as="geometry" />
        </mxCell>
        <mxCell id="Wph4KG50UmGnbhIYvJGn-6" value="&lt;b&gt;&amp;lt;&amp;lt;include&amp;gt;&amp;gt;&lt;/b&gt;" style="endArrow=open;endSize=12;dashed=1;html=1;rounded=0;fontSize=17;entryX=0.451;entryY=1.02;entryDx=0;entryDy=0;entryPerimeter=0;exitX=0.353;exitY=0;exitDx=0;exitDy=0;exitPerimeter=0;" edge="1" parent="1" source="Wph4KG50UmGnbhIYvJGn-5" target="Wph4KG50UmGnbhIYvJGn-4">
          <mxGeometry width="160" relative="1" as="geometry">
            <mxPoint x="330" y="270" as="sourcePoint" />
            <mxPoint x="490" y="270" as="targetPoint" />
          </mxGeometry>
        </mxCell>
        <mxCell id="Wph4KG50UmGnbhIYvJGn-7" value="&lt;b&gt;创建C\C++测试&lt;br&gt;任务&lt;/b&gt;" style="ellipse;whiteSpace=wrap;html=1;fontSize=17;fillColor=#ffe6cc;strokeColor=#d79b00;" vertex="1" parent="1">
          <mxGeometry x="590" y="130" width="160" height="80" as="geometry" />
        </mxCell>
        <mxCell id="Wph4KG50UmGnbhIYvJGn-9" value="" style="endArrow=block;html=1;rounded=0;fontSize=14;entryX=0.5;entryY=1;entryDx=0;entryDy=0;exitX=1;exitY=0.5;exitDx=0;exitDy=0;endFill=0;strokeWidth=1;endSize=11;" edge="1" parent="1" source="Wph4KG50UmGnbhIYvJGn-5" target="Wph4KG50UmGnbhIYvJGn-7">
          <mxGeometry relative="1" as="geometry">
            <mxPoint x="360" y="260" as="sourcePoint" />
            <mxPoint x="460" y="260" as="targetPoint" />
            <Array as="points">
              <mxPoint x="570" y="290" />
            </Array>
          </mxGeometry>
        </mxCell>
        <mxCell id="Wph4KG50UmGnbhIYvJGn-10" value="&amp;lt;&amp;lt;Extends&amp;gt;&amp;gt;" style="edgeLabel;resizable=0;html=1;align=center;verticalAlign=middle;strokeColor=#990099;fontSize=14;fontStyle=1" connectable="0" vertex="1" parent="Wph4KG50UmGnbhIYvJGn-9">
          <mxGeometry relative="1" as="geometry" />
        </mxCell>
        <mxCell id="Wph4KG50UmGnbhIYvJGn-11" value="" style="endArrow=none;html=1;rounded=0;strokeWidth=1;fontSize=14;endSize=11;entryX=0;entryY=0.5;entryDx=0;entryDy=0;" edge="1" parent="1" source="Wph4KG50UmGnbhIYvJGn-1" target="Wph4KG50UmGnbhIYvJGn-5">
          <mxGeometry width="50" height="50" relative="1" as="geometry">
            <mxPoint x="390" y="280" as="sourcePoint" />
            <mxPoint x="440" y="230" as="targetPoint" />
          </mxGeometry>
        </mxCell>
      </root>
    </mxGraphModel>
  </diagram>
</mxfile>
